<?xml version="1.0" standalone="no"?>
<!DOCTYPE svg PUBLIC "-//W3C//DTD SVG 20010904//EN"
 "http://www.w3.org/TR/2001/REC-SVG-20010904/DTD/svg10.dtd">
<svg version="1.0" xmlns="http://www.w3.org/2000/svg"
 width="1024.000000pt" height="1024.000000pt" viewBox="0 0 1024.000000 1024.000000"
 preserveAspectRatio="xMidYMid meet">

<g transform="translate(0.000000,1024.000000) scale(0.100000,-0.100000)"
fill="#000000" stroke="none">
<path d="M0 5120 l0 -5120 5120 0 5120 0 0 5120 0 5120 -5120 0 -5120 0 0
-5120z m7778 2344 c32 -11 73 -35 102 -61 50 -45 99 -129 84 -142 -12 -11
-128 -51 -146 -51 -8 0 -26 17 -39 37 -35 54 -80 77 -153 77 -105 -1 -156 -45
-156 -137 0 -50 24 -88 70 -112 16 -8 89 -31 162 -51 248 -67 303 -122 300
-302 -1 -110 -32 -177 -107 -234 -77 -58 -131 -73 -265 -72 -133 0 -198 20
-269 80 -35 30 -101 124 -101 145 0 8 45 28 112 49 l57 17 26 -41 c14 -23 41
-51 58 -64 65 -44 176 -47 244 -7 68 40 88 135 40 198 -30 40 -49 49 -177 81
-191 48 -266 92 -313 180 -29 55 -31 204 -4 254 28 51 86 111 129 133 96 49
237 59 346 23z m-4973 -9 c235 -50 375 -239 375 -505 0 -207 -91 -380 -242
-460 -110 -59 -176 -70 -420 -70 l-218 0 0 518 c0 285 3 522 7 525 13 14 426
7 498 -8z m1210 -65 l0 -75 -219 -3 c-141 -1 -224 -6 -233 -13 -17 -15 -19
-229 -1 -247 9 -9 70 -12 215 -12 l203 0 5 -23 c4 -13 5 -48 3 -78 l-3 -54
-215 -5 -215 -5 -3 -134 c-2 -90 1 -138 9 -147 9 -11 56 -14 234 -14 255 0
235 9 235 -103 l0 -57 -332 2 -333 3 -3 510 c-1 281 0 516 3 523 3 10 74 12
327 10 l323 -3 0 -75z m419 30 c18 -25 121 -184 230 -355 110 -170 204 -313
210 -317 5 -4 14 -4 18 -2 4 3 8 167 8 365 l0 360 88 -3 87 -3 0 -520 0 -520
-97 -3 -97 -3 -37 58 c-51 80 -263 403 -359 547 -44 66 -86 122 -92 124 -10 3
-13 -77 -15 -360 l-3 -363 -85 0 -85 0 -3 510 c-1 281 0 516 3 523 3 9 30 12
102 10 l96 -3 31 -45z m1197 -170 c253 -389 320 -488 334 -494 13 -4 15 46 17
352 l3 357 88 3 87 3 0 -526 0 -526 -96 3 -96 3 -224 344 c-123 190 -230 352
-239 360 -33 33 -36 -4 -33 -359 l3 -345 -90 0 -90 0 -3 510 c-1 281 0 516 3
523 3 9 30 12 101 10 l96 -3 139 -215z m984 38 c56 -98 108 -184 115 -193 30
-36 46 -18 160 180 l113 195 93 0 c51 0 95 -4 98 -8 3 -5 -73 -139 -169 -299
l-175 -291 0 -226 0 -226 -85 0 -85 0 0 215 0 215 -184 305 c-101 167 -181
307 -178 310 3 3 49 4 101 3 l94 -3 102 -177z m-2281 -1194 c83 -21 156 -65
210 -125 176 -196 170 -548 -13 -729 -114 -113 -215 -140 -517 -140 l-204 0 0
505 0 505 231 0 c178 0 245 -4 293 -16z m1136 -59 l0 -75 -217 -2 -218 -3 0
-130 0 -130 200 -5 200 -5 0 -70 0 -70 -202 -3 -203 -2 0 -140 c0 -77 1 -141
3 -142 1 -1 101 -4 222 -8 l220 -5 0 -70 0 -70 -312 -3 -313 -2 0 505 0 505
310 0 310 0 0 -75z m392 -175 c49 -135 106 -292 126 -350 41 -117 51 -136 62
-123 7 7 162 427 241 656 l24 67 92 0 c77 0 93 -3 93 -15 0 -15 -326 -898
-355 -962 l-15 -33 -84 0 c-73 0 -87 3 -95 19 -6 10 -78 200 -161 422 -83 222
-161 433 -175 469 -13 36 -27 73 -31 83 -6 16 1 18 91 15 l97 -3 90 -245z"/>
<path d="M7525 7463 c-73 -16 -154 -68 -185 -118 -12 -19 -18 -40 -14 -46 4
-7 3 -9 -4 -5 -11 6 -15 -4 -27 -63 -9 -41 3 -143 16 -136 5 3 6 -1 3 -9 -9
-23 32 -83 79 -115 39 -26 218 -91 252 -91 28 0 123 -41 148 -64 14 -13 31
-42 37 -65 39 -146 -144 -251 -300 -171 -30 15 -72 59 -106 108 -5 7 -144 -41
-144 -50 0 -19 31 -68 40 -63 6 3 7 0 4 -8 -12 -31 145 -137 182 -123 8 3 13
2 9 -3 -3 -5 25 -13 61 -16 181 -20 333 46 390 170 19 40 24 67 24 135 -1 177
-48 219 -338 295 -117 31 -159 56 -185 105 -44 88 16 187 125 205 81 14 156
-21 211 -99 14 -19 15 -19 81 4 77 27 80 36 36 102 -60 90 -148 129 -289 127
-47 -1 -95 -3 -106 -6z"/>
<path d="M2320 6943 l0 -516 223 6 c242 6 310 18 401 71 58 34 119 94 110 108
-4 7 -3 8 4 4 14 -9 59 68 85 147 28 87 30 288 3 367 -54 159 -144 252 -292
301 -63 21 -90 23 -301 25 l-233 3 0 -516z m460 356 c30 -11 63 -21 72 -22 9
-1 15 -4 13 -8 -8 -11 33 -41 46 -33 7 4 10 3 6 -3 -4 -6 2 -22 13 -36 12 -14
33 -52 48 -84 24 -52 27 -69 27 -168 0 -98 -3 -116 -27 -167 -33 -71 -104
-149 -158 -173 -22 -10 -40 -21 -40 -25 0 -12 -270 -12 -286 0 -12 10 -14 69
-14 357 0 218 4 351 10 364 10 17 22 19 123 19 88 -1 124 -5 167 -21z"/>
<path d="M2495 7289 c-3 -13 -4 -177 -3 -364 l3 -340 131 0 c125 0 133 1 189
30 247 126 245 542 -3 661 -51 25 -71 28 -184 32 -127 4 -127 4 -133 -19z"/>
<path d="M3380 6945 l0 -515 318 0 317 0 -3 70 -4 70 -218 0 c-187 0 -221 2
-235 16 -13 13 -15 39 -13 157 l3 142 213 3 212 2 0 68 0 67 -200 1 c-143 1
-204 5 -215 14 -20 16 -22 237 -2 263 10 15 39 17 232 19 l220 3 0 65 0 65
-312 3 -313 2 0 -515z"/>
<path d="M4220 6945 l1 -516 70 3 71 3 2 358 c2 196 6 360 9 364 17 16 58 -27
128 -135 42 -64 143 -217 223 -340 81 -122 149 -229 152 -237 5 -12 26 -15
100 -15 l94 0 -2 513 -3 512 -77 3 -78 3 0 -361 c0 -319 -2 -361 -16 -367 -21
-8 -38 11 -98 107 -28 45 -129 202 -225 351 l-173 269 -89 0 -89 0 0 -515z"/>
<path d="M5310 6955 c0 -278 -1 -508 -2 -512 -2 -5 32 -9 74 -11 l78 -3 2 358
3 358 24 0 c21 0 57 -49 256 -355 l231 -355 87 -3 87 -3 0 515 0 514 -47 1
c-27 0 -60 -2 -75 -5 l-28 -6 0 -338 c0 -186 -3 -345 -6 -354 -10 -26 -31 -19
-63 22 -17 20 -124 181 -238 357 l-208 320 -88 3 -87 3 0 -506z m47 489 c-3
-3 -12 -4 -19 -1 -8 3 -5 6 6 6 11 1 17 -2 13 -5z m86 -1 c-7 -2 -19 -2 -25 0
-7 3 -2 5 12 5 14 0 19 -2 13 -5z m4 -355 c-3 -7 -5 -2 -5 12 0 14 2 19 5 13
2 -7 2 -19 0 -25z m-83 -276 c7 -12 -12 -38 -21 -28 -4 5 -2 11 6 14 11 4 11
6 0 13 -9 6 -10 9 -2 9 6 0 14 -4 17 -8z"/>
<path d="M6361 7403 c57 -100 85 -144 90 -138 3 3 6 -1 6 -7 0 -21 64 -128 73
-123 5 3 12 0 16 -6 5 -8 3 -9 -6 -4 -8 5 -11 3 -8 -6 3 -8 11 -13 17 -11 7 1
10 -2 6 -7 -6 -11 64 -139 110 -200 25 -35 25 -35 25 -253 l0 -218 75 0 75 0
0 224 0 224 170 283 c94 156 170 287 170 292 0 4 -38 7 -85 6 -83 -2 -86 -3
-100 -29 -8 -15 -11 -31 -7 -36 4 -5 3 -6 -2 -2 -5 4 -46 -57 -92 -135 -110
-188 -110 -189 -142 -185 -23 3 -40 26 -122 169 -140 244 -116 219 -216 219
l-85 0 32 -57z m159 -207 c0 -3 -4 -8 -10 -11 -5 -3 -10 -1 -10 4 0 6 5 11 10
11 6 0 10 -2 10 -4z m200 -407 c0 -6 -4 -7 -10 -4 -5 3 -10 11 -10 16 0 6 5 7
10 4 6 -3 10 -11 10 -16z m-3 -204 c0 -8 -4 -15 -9 -15 -10 0 -11 14 -1 23 9
10 10 9 10 -8z"/>
<path d="M3820 5605 l0 -495 194 0 c206 0 297 12 384 50 61 27 144 91 138 107
-3 7 0 12 6 10 16 -3 75 97 94 158 24 78 29 228 10 308 -34 145 -109 248 -219
302 -99 48 -147 55 -393 55 l-214 0 0 -495z m482 338 c63 -29 134 -101 166
-171 24 -51 27 -69 27 -167 0 -101 -2 -115 -29 -169 -36 -73 -95 -134 -161
-166 -42 -21 -69 -25 -173 -28 -88 -3 -126 -1 -137 8 -13 11 -15 62 -15 350 0
186 3 346 6 355 6 15 22 17 138 13 106 -3 140 -8 178 -25z m-465 -725 c-3 -8
-6 -5 -6 6 -1 11 2 17 5 13 3 -3 4 -12 1 -19z"/>
<path d="M3998 5954 c-11 -10 -10 -676 1 -693 7 -11 34 -13 128 -9 105 3 126
7 175 31 65 32 116 84 155 159 25 49 28 62 28 163 0 100 -3 115 -27 166 -36
72 -89 125 -158 157 -47 22 -72 27 -175 30 -66 2 -123 1 -127 -4z"/>
<path d="M4870 5605 l0 -495 300 0 300 0 0 65 0 65 -214 0 c-170 0 -216 3
-225 14 -8 9 -11 59 -9 152 l3 139 200 5 200 5 1 45 c1 86 16 80 -202 80 -228
0 -206 -18 -202 165 l3 120 218 3 217 2 0 65 0 65 -295 0 -295 0 0 -495z"/>
<path d="M5620 6028 c15 -40 98 -263 185 -495 l158 -423 82 0 81 0 51 138
c200 535 233 627 228 640 -2 7 -1 11 4 8 6 -4 81 178 81 198 0 3 -38 6 -84 6
l-84 0 -13 -37 c-36 -114 -233 -651 -245 -670 -8 -13 -20 -20 -28 -17 -8 3
-35 65 -61 137 -25 73 -51 143 -56 157 -25 58 -149 408 -149 419 0 7 -29 11
-89 11 l-89 0 28 -72z m24 44 c3 -5 -1 -9 -9 -9 -8 0 -12 4 -9 9 3 4 7 8 9 8
2 0 6 -4 9 -8z"/>
</g>
</svg>
